<?xml version="1.0" standalone="no"?>
<!DOCTYPE svg PUBLIC "-//W3C//DTD SVG 20010904//EN"
 "http://www.w3.org/TR/2001/REC-SVG-20010904/DTD/svg10.dtd">
<svg version="1.0" xmlns="http://www.w3.org/2000/svg"
 width="871.000000pt" height="1155.000000pt" viewBox="0 0 871.000000 1155.000000"
 preserveAspectRatio="xMidYMid meet">

<g transform="translate(0.000000,1155.000000) scale(0.100000,-0.100000)"
fill="#000000" stroke="none">
<path d="M197 11503 c83 -157 139 -279 158 -348 10 -33 23 -73 31 -90 18 -43
61 -157 67 -180 30 -114 59 -203 81 -250 15 -31 32 -83 37 -116 5 -32 20 -78
32 -101 39 -73 81 -142 93 -155 15 -15 28 -17 19 -3 -3 6 -2 10 4 10 5 0 13
-4 16 -10 8 -12 45 10 45 27 0 7 4 13 9 13 5 0 12 8 15 18 12 32 31 62 38 62
4 0 5 7 1 15 -3 9 1 21 10 28 14 11 24 49 77 292 13 55 27 116 33 135 6 19 12
48 14 64 1 15 12 57 23 93 11 36 20 77 20 91 0 34 89 394 101 406 5 6 9 18 9
28 0 17 -24 18 -479 18 l-479 0 25 -47z"/>
<path d="M2900 11544 c0 -10 61 -188 71 -206 5 -10 9 -25 9 -34 0 -9 6 -28 14
-42 18 -33 44 -106 87 -242 19 -58 37 -107 41 -110 4 -4 9 -23 10 -43 2 -20 7
-37 12 -37 5 0 7 -3 3 -6 -3 -3 -1 -18 5 -33 10 -27 13 -38 24 -111 4 -25 10
-49 14 -55 10 -14 49 -165 50 -190 0 -11 2 -49 5 -85 8 -90 12 -393 5 -405 -3
-5 -6 -30 -7 -55 -5 -91 -6 -100 -15 -100 -5 0 -4 -9 2 -19 5 -11 10 -35 10
-54 0 -18 3 -37 6 -40 8 -8 12 -48 18 -184 3 -57 7 -107 10 -112 4 -5 2 -21
-4 -35 -6 -16 -6 -27 0 -31 6 -4 10 -3 11 2 1 4 4 -3 8 -17 5 -14 5 -29 2 -35
-10 -17 -7 -75 5 -79 6 -2 10 -17 8 -32 -1 -16 1 -33 6 -39 4 -5 8 -44 8 -85
0 -41 1 -77 2 -80 1 -3 4 -31 5 -63 2 -31 8 -63 14 -70 8 -10 7 -17 -2 -27
-10 -10 -9 -12 6 -7 13 5 17 1 17 -18 0 -16 6 -25 16 -25 9 0 14 -6 11 -13 -6
-17 26 -143 46 -182 9 -16 22 -43 30 -60 7 -16 18 -39 25 -50 6 -11 17 -35 24
-52 7 -18 17 -33 21 -33 5 0 6 -4 2 -9 -3 -6 0 -13 7 -18 7 -4 19 -20 27 -35
8 -16 20 -28 28 -28 7 0 13 -7 13 -15 0 -8 7 -15 15 -15 7 0 18 -6 22 -13 8
-12 30 -24 83 -44 14 -6 62 -9 107 -8 107 4 176 35 234 109 70 88 70 88 109
536 6 74 20 227 31 340 10 113 24 257 30 320 24 271 70 591 118 820 11 52 21
106 23 120 2 14 6 30 9 35 4 6 9 33 13 60 11 81 37 218 45 240 5 11 35 101 68
200 33 99 70 203 81 230 11 28 26 66 33 85 7 19 41 92 76 163 l64 127 -936 0
c-514 0 -935 -3 -935 -6z"/>
<path d="M5660 11530 c-14 -11 -29 -20 -33 -20 -17 0 -115 -81 -157 -130 -49
-56 -130 -169 -130 -181 0 -4 -15 -33 -33 -66 -64 -112 -162 -408 -222 -668
-14 -60 -30 -126 -35 -145 -36 -123 -101 -460 -115 -585 -3 -33 -10 -78 -15
-100 -5 -22 -16 -130 -25 -240 -8 -110 -18 -222 -20 -250 -2 -27 -7 -129 -10
-225 -3 -96 -7 -206 -10 -245 -2 -38 -7 -146 -10 -240 -6 -153 -5 -173 12
-205 15 -28 25 -36 53 -38 19 -2 39 -8 44 -13 6 -5 18 -9 28 -9 10 0 18 -4 18
-8 0 -4 13 -15 28 -24 22 -13 47 -16 108 -14 93 4 115 11 214 64 67 36 81 48
130 120 74 109 136 234 215 432 78 196 74 188 185 410 82 166 154 303 170 325
32 43 293 565 360 720 90 205 130 417 123 640 -2 66 -8 129 -13 140 -5 11 -18
49 -29 85 -43 136 -73 216 -90 235 -10 11 -27 36 -39 55 -24 40 -99 107 -181
163 l-56 37 -220 -1 c-201 0 -223 -2 -245 -19z"/>
<path d="M7320 11544 c0 -7 29 -45 77 -101 18 -21 33 -43 33 -49 0 -7 7 -15
16 -18 9 -3 12 -11 8 -18 -5 -8 -2 -9 9 -5 10 3 17 2 17 -3 0 -5 9 -12 21 -15
15 -5 29 0 48 19 39 37 85 51 121 36 26 -11 45 -34 121 -152 l24 -37 11 40 c7
22 21 60 33 84 12 25 21 48 21 52 0 5 17 19 36 33 39 27 86 70 123 113 l24 27
-371 0 c-205 0 -372 -3 -372 -6z"/>
<path d="M1 9424 c-1 -847 3 -1484 8 -1490 5 -5 19 -43 31 -84 12 -41 26 -86
30 -100 4 -14 15 -50 24 -80 28 -94 147 -464 156 -485 5 -11 16 -45 25 -75 9
-30 23 -68 30 -85 7 -16 34 -115 59 -220 25 -104 51 -206 56 -225 5 -19 21
-93 35 -165 14 -71 34 -170 45 -220 10 -49 24 -121 30 -160 30 -180 62 -300
87 -323 31 -29 44 -20 80 57 44 96 55 115 89 146 17 17 35 40 38 52 4 11 13
27 21 33 8 7 15 21 15 32 0 10 6 21 14 24 8 3 20 19 26 35 7 16 16 29 21 29 5
0 18 21 29 48 11 26 26 56 32 67 61 108 98 225 113 355 8 76 5 679 -4 745 -6
39 -15 135 -21 215 -6 80 -15 161 -19 180 -5 19 -14 68 -22 109 -8 46 -15 67
-19 56 -6 -17 -7 -17 -13 -1 -4 9 -11 14 -17 11 -6 -4 -13 7 -16 25 -5 21 -11
29 -20 26 -9 -3 -14 2 -14 14 0 11 -7 20 -15 20 -18 0 -18 5 -5 30 9 16 8 18
-5 14 -13 -5 -15 0 -9 34 4 24 2 42 -5 46 -6 4 -13 30 -17 57 -4 28 -12 53
-19 56 -15 5 -16 72 -3 90 7 9 2 14 -16 19 -25 6 -25 7 -9 20 11 8 13 13 6 14
-8 0 -13 13 -13 31 0 20 -4 28 -12 23 -7 -4 -8 -3 -4 5 4 6 2 19 -5 28 -7 8
-14 40 -16 70 -1 31 -7 61 -12 67 -5 6 -15 33 -21 59 -7 26 -15 47 -19 47 -4
0 -14 13 -23 28 -13 22 -14 32 -6 40 9 9 8 12 -4 12 -14 0 -48 50 -48 70 0 4
-16 25 -35 46 -19 21 -35 46 -35 56 0 11 -7 18 -19 18 -14 0 -19 6 -16 19 2
11 -5 37 -16 58 -19 37 -39 86 -81 203 -11 30 -22 73 -24 95 -2 22 -8 49 -13
60 -18 37 -41 116 -41 140 0 14 -4 25 -10 25 -5 0 -10 10 -10 23 -1 27 -22
107 -33 125 -5 6 -5 17 -2 22 4 6 2 16 -3 23 -6 7 -20 68 -32 137 -12 69 -27
133 -32 144 -9 17 -50 196 -68 298 -5 27 -11 52 -15 57 -3 6 -17 56 -31 113
-14 57 -32 112 -39 123 -7 11 -22 56 -33 100 -11 44 -29 100 -40 125 l-21 45
0 -1481z"/>
<path d="M8700 10860 c0 -11 -4 -28 -9 -38 -86 -169 -180 -594 -241 -1090 -33
-269 -69 -561 -81 -647 -12 -89 -65 -397 -79 -460 -5 -22 -14 -69 -20 -105
-16 -86 -43 -180 -90 -315 -21 -60 -44 -130 -50 -155 -7 -25 -15 -49 -20 -55
-4 -5 -10 -23 -13 -40 -3 -16 -17 -61 -32 -100 -14 -38 -30 -81 -34 -95 -5
-14 -25 -61 -46 -105 -20 -44 -56 -125 -80 -180 -24 -55 -64 -147 -90 -205
-26 -58 -60 -143 -76 -190 -16 -47 -34 -94 -39 -105 -5 -11 -19 -54 -31 -95
-12 -41 -25 -83 -30 -92 -5 -10 -9 -23 -9 -30 0 -7 -6 -24 -13 -38 -7 -14 -21
-54 -31 -90 -10 -36 -22 -76 -26 -90 -5 -14 -12 -47 -15 -75 -9 -63 -8 -303 1
-317 4 -6 8 -54 9 -107 2 -124 49 -326 94 -408 6 -10 17 -36 26 -58 9 -22 24
-53 33 -70 9 -16 16 -32 15 -35 0 -3 11 -22 23 -42 13 -21 24 -41 24 -44 0 -4
11 -22 25 -40 14 -18 25 -36 25 -41 1 -21 92 -98 141 -120 20 -9 29 -9 38 0 9
9 11 8 6 -4 -5 -14 0 -17 32 -15 21 1 44 5 51 10 7 4 19 2 27 -4 8 -7 23 -9
32 -5 10 4 37 9 60 10 32 3 45 -1 53 -13 9 -16 11 -16 20 0 10 16 14 16 38 4
20 -10 31 -11 44 -2 14 8 23 8 38 -2 12 -7 25 -10 30 -7 6 4 10 0 10 -7 0 -9
3 -9 10 2 8 12 12 12 18 2 9 -13 35 -18 127 -28 27 -3 52 -9 55 -13 3 -4 13
-10 23 -14 9 -4 22 -17 27 -29 5 -14 9 1125 9 2895 1 1604 -1 2917 -4 2917 -3
0 -5 -9 -5 -20z"/>
<path d="M2395 9779 c-4 -6 -5 -12 -2 -15 2 -3 7 2 10 11 7 17 1 20 -8 4z"/>
<path d="M2312 9771 c-8 -4 -13 -12 -12 -17 1 -5 -3 -10 -9 -12 -6 -2 -11 1
-11 6 0 6 -28 9 -65 8 -49 -1 -64 -4 -62 -15 1 -8 -4 -16 -12 -19 -9 -3 -11 1
-7 16 4 11 3 23 -2 25 -12 8 -34 -8 -30 -22 2 -8 -9 -14 -25 -16 -22 -3 -27 0
-23 11 4 9 -1 14 -14 14 -11 0 -20 -5 -20 -11 0 -6 -7 -9 -15 -5 -9 3 -15 0
-15 -9 0 -17 -45 -21 -55 -5 -8 13 -35 1 -35 -16 0 -16 -36 -19 -45 -4 -10 17
-45 12 -39 -5 5 -11 -2 -15 -26 -15 -24 0 -31 -4 -26 -15 5 -13 1 -13 -31 0
-48 20 -62 19 -56 -5 7 -27 -16 -26 -26 2 -6 16 -10 18 -16 8 -5 -9 -4 -15 3
-18 15 -5 16 -42 2 -42 -5 0 -10 7 -10 15 0 11 -11 15 -37 15 -25 0 -33 -3
-25 -9 10 -6 11 -19 7 -45 -8 -40 -25 -59 -25 -27 0 12 -4 21 -9 21 -5 0 -18
3 -28 7 -15 6 -16 4 -5 -9 16 -20 5 -53 -13 -38 -6 5 -15 7 -18 3 -4 -3 -7 -1
-7 5 0 7 -6 12 -13 12 -8 0 -13 -10 -13 -22 1 -13 -5 -23 -11 -24 -7 -1 -17
-2 -21 -3 -32 -4 -60 -366 -43 -546 6 -60 15 -159 21 -220 28 -289 115 -723
230 -1152 68 -251 97 -333 116 -333 8 0 29 24 46 53 159 259 234 337 563 585
162 122 330 280 386 362 42 63 99 176 115 230 44 148 66 517 45 755 -19 227
-30 308 -41 319 -5 5 -10 32 -10 58 0 34 -5 50 -15 54 -8 4 -15 14 -15 25 0
10 -8 24 -18 31 -11 7 -21 20 -25 28 -3 9 -6 4 -6 -12 -1 -18 -6 -28 -16 -28
-8 0 -15 -3 -15 -8 0 -4 -20 -7 -44 -7 -25 0 -42 4 -40 10 2 6 -15 11 -38 12
-29 2 -48 9 -58 23 -19 25 -34 16 -17 -11 19 -30 0 -33 -27 -4 -20 21 -29 25
-39 17 -10 -9 -17 -8 -25 0 -9 9 -17 10 -30 2 -19 -12 -62 -1 -62 16 0 12 -20
13 -38 1z m48 -41 c0 -5 -4 -10 -10 -10 -5 0 -10 5 -10 10 0 6 5 10 10 10 6 0
10 -4 10 -10z m-252 -1394 c3 -13 -1 -17 -14 -14 -11 2 -20 11 -22 22 -3 13 1
17 14 14 11 -2 20 -11 22 -22z m230 -14 c2 -15 -2 -22 -12 -22 -9 0 -16 4 -16
9 0 5 -3 17 -6 26 -5 13 -2 16 12 13 11 -2 20 -13 22 -26z m-518 -566 c0 -14
-5 -28 -10 -31 -13 -8 -24 20 -16 40 9 24 26 17 26 -9z"/>
<path d="M1440 9580 c0 -5 6 -10 14 -10 8 0 18 5 21 10 3 6 -3 10 -14 10 -12
0 -21 -4 -21 -10z"/>
<path d="M7140 9225 c10 -12 9 -15 -7 -15 -10 0 -24 -5 -30 -11 -14 -14 -53
-2 -53 17 0 8 -4 14 -10 14 -5 0 -10 -5 -10 -11 0 -6 -9 -8 -21 -4 -19 6 -21
4 -16 -14 6 -25 -8 -28 -22 -3 -10 16 -10 16 -11 -2 0 -19 0 -19 -13 -1 -9 11
-19 15 -27 10 -7 -4 -16 -2 -21 6 -6 11 -9 10 -13 -4 -19 -57 -16 -54 -30 -34
-18 24 -39 22 -31 -3 6 -20 -9 -28 -20 -10 -9 15 -25 12 -25 -5 0 -9 -6 -12
-16 -8 -9 3 -19 1 -23 -5 -5 -8 -15 -7 -35 3 -31 17 -48 12 -39 -10 3 -11 1
-13 -10 -9 -8 3 -18 1 -22 -5 -11 -18 -25 -12 -25 10 0 17 -3 19 -14 10 -10
-8 -16 -9 -21 -1 -3 5 -11 10 -16 10 -6 0 -8 -4 -5 -9 3 -5 0 -14 -8 -20 -10
-9 -16 -8 -26 4 -7 8 -19 15 -27 15 -12 0 -13 -3 -4 -13 8 -11 5 -17 -13 -27
-29 -15 -46 -7 -39 20 6 23 1 24 -44 8 -33 -12 -40 -34 -9 -32 9 1 16 -2 16
-6 0 -12 -29 -20 -35 -10 -3 5 -12 7 -20 3 -8 -3 -15 -1 -15 5 0 13 -27 9 -41
-5 -6 -6 -18 -9 -25 -6 -8 3 -17 -3 -21 -13 -8 -22 -33 -49 -33 -37 -1 4 -7
-3 -15 -17 -8 -14 -14 -19 -15 -13 0 21 -40 -19 -40 -40 0 -10 -4 -16 -10 -12
-12 7 -34 -66 -73 -250 -28 -135 -31 -167 -32 -325 0 -166 2 -180 28 -262 43
-129 108 -219 257 -355 305 -277 368 -350 470 -538 73 -134 92 -165 105 -165
18 0 58 54 132 175 90 149 203 384 288 600 15 39 33 84 41 100 114 259 300
844 329 1033 7 48 15 94 17 102 1 8 -3 14 -9 12 -8 -1 -14 9 -14 25 -2 24 -2
25 -6 6 -2 -13 -9 -23 -14 -23 -6 0 -7 9 -4 20 6 18 3 20 -19 14 -16 -4 -26
-2 -26 5 0 6 5 11 11 11 5 0 7 5 3 11 -3 6 -14 9 -24 6 -13 -3 -16 0 -13 13 4
13 -3 19 -30 24 -19 4 -41 13 -47 21 -8 10 -17 12 -24 6 -18 -15 -83 -24 -90
-12 -4 6 -16 16 -28 22 -15 8 -19 8 -14 0 10 -16 -10 -13 -28 4 -8 8 -18 15
-21 15 -4 0 -5 -7 -1 -15 7 -19 -4 -19 -32 0 -17 13 -21 13 -16 2 3 -8 -2 -19
-10 -26 -16 -13 -46 -3 -74 26 -19 18 -38 17 -22 -2z m482 -142 c-6 -3 -9 -10
-6 -16 4 -7 1 -7 -7 1 -12 11 -12 14 1 22 8 5 17 6 20 3 3 -3 -1 -8 -8 -10z
m-1302 -33 c0 -5 -4 -10 -10 -10 -5 0 -10 5 -10 10 0 6 5 10 10 10 6 0 10 -4
10 -10z m1347 -12 c-3 -8 -6 -5 -6 6 -1 11 2 17 5 13 3 -3 4 -12 1 -19z m-347
-988 c0 -11 -4 -20 -10 -20 -5 0 -10 9 -10 20 0 11 5 20 10 20 6 0 10 -9 10
-20z m-800 -265 c0 -14 -4 -25 -9 -25 -12 0 -19 21 -13 38 8 21 22 13 22 -13z
m390 -110 c0 -16 -27 -32 -37 -22 -3 4 -3 13 0 22 8 20 37 20 37 0z"/>
<path d="M7191 9224 c0 -11 3 -14 6 -6 3 7 2 16 -1 19 -3 4 -6 -2 -5 -13z"/>
<path d="M7210 9220 c0 -5 5 -10 10 -10 6 0 10 5 10 10 0 6 -4 10 -10 10 -5 0
-10 -4 -10 -10z"/>
<path d="M6697 9206 c-4 -10 -5 -21 -2 -24 9 -9 17 6 13 25 -3 17 -4 17 -11
-1z"/>
<path d="M6716 9165 c-3 -8 -1 -15 4 -15 6 0 10 7 10 15 0 8 -2 15 -4 15 -2 0
-6 -7 -10 -15z"/>
<path d="M6740 9170 c0 -5 5 -10 10 -10 6 0 10 5 10 10 0 6 -4 10 -10 10 -5 0
-10 -4 -10 -10z"/>
<path d="M2535 6901 c-167 -27 -328 -108 -460 -233 -128 -120 -204 -244 -264
-430 -25 -79 -31 -116 -32 -200 -4 -185 -3 -242 4 -318 4 -41 9 -106 12 -143
5 -69 27 -122 101 -238 25 -41 161 -167 244 -227 30 -22 68 -50 83 -62 46 -36
152 -76 307 -115 182 -47 263 -46 410 5 89 30 98 31 145 20 28 -7 82 -32 120
-55 153 -92 209 -110 287 -94 55 12 92 49 107 107 22 83 34 284 34 587 0 344
-7 418 -59 614 -90 338 -237 562 -439 671 -33 18 -70 39 -82 46 -12 8 -62 26
-110 40 -71 21 -114 27 -223 29 -74 2 -158 0 -185 -4z m544 -214 c13 -12 37
-42 52 -66 67 -104 16 -280 -91 -312 -34 -10 -42 -9 -69 10 -37 27 -68 94 -83
182 -11 65 -11 68 18 125 36 73 82 108 122 93 15 -6 38 -20 51 -32z m-352
-556 c60 -28 76 -58 71 -131 -7 -93 -39 -119 -180 -147 -32 -6 -85 23 -123 68
-18 22 -25 42 -25 72 2 124 133 194 257 138z m-828 -99 c7 -14 3 -30 -18 -65
-24 -41 -29 -45 -44 -34 -9 6 -19 26 -23 42 -10 54 61 102 85 57z m1640 -221
c53 -67 52 -181 -2 -181 -13 0 -32 9 -42 20 -10 11 -25 20 -34 20 -42 0 -154
111 -133 132 5 5 32 10 60 10 37 -1 54 4 68 19 26 29 49 23 83 -20z m-1572
-26 c22 -9 60 -14 94 -13 49 2 62 -1 84 -22 14 -13 25 -31 25 -41 0 -22 -43
-58 -98 -83 -41 -19 -44 -19 -95 -1 -41 14 -58 26 -79 60 -16 23 -28 56 -28
73 0 26 4 31 28 35 15 2 28 5 30 6 1 0 19 -6 39 -14z m1388 -211 c85 -25 101
-79 40 -139 -47 -45 -140 -80 -173 -66 -15 7 -29 8 -41 1 -10 -5 -31 -9 -47
-9 -45 1 -255 -10 -299 -16 -66 -9 -350 12 -387 28 -18 8 -42 18 -53 21 -30
11 1 26 52 26 23 0 45 5 48 10 5 8 11 7 20 0 8 -7 19 -8 26 -5 6 4 43 9 83 10
39 1 84 7 99 14 16 6 37 11 48 11 11 0 30 5 42 12 12 6 30 12 40 13 10 1 32
16 49 32 l30 31 35 -20 c26 -16 37 -18 46 -9 6 6 24 11 39 11 18 0 31 6 35 18
13 38 22 40 131 37 59 -1 121 -7 137 -11z"/>
<path d="M2602 6058 c-7 -7 -12 -22 -12 -34 0 -13 -5 -35 -10 -49 -13 -34 0
-60 41 -81 44 -22 57 -7 40 49 -7 23 -16 60 -19 81 -8 42 -21 53 -40 34z"/>
<path d="M5855 6886 c-85 -14 -202 -62 -277 -114 -140 -99 -281 -282 -382
-494 -33 -70 -106 -272 -135 -373 -19 -66 -30 -194 -19 -232 5 -19 11 -182 12
-361 2 -197 8 -353 15 -392 23 -122 73 -200 129 -200 29 0 237 98 281 131 13
11 31 19 40 19 10 0 79 -31 154 -70 110 -56 146 -70 182 -70 76 0 387 85 475
130 22 11 45 20 52 20 11 0 181 83 263 127 11 6 39 17 63 24 28 8 51 24 69 48
15 19 36 44 48 56 18 18 20 32 19 149 -1 121 -3 130 -24 146 -21 16 -21 18 -7
46 8 16 23 81 32 144 26 174 8 373 -49 575 -49 168 -86 234 -222 396 -100 118
-172 179 -277 234 -133 71 -263 88 -442 61z m232 -118 c83 -88 94 -244 22
-334 -31 -39 -70 -64 -99 -64 -53 0 -107 141 -98 254 4 50 12 74 37 110 52 76
89 85 138 34z m-186 -620 c117 -40 156 -116 109 -213 -32 -67 -110 -101 -110
-47 0 47 -20 101 -41 113 -12 6 -23 8 -25 6 -3 -3 -8 -30 -11 -61 -5 -46 -2
-60 13 -77 18 -20 18 -20 -36 -13 -100 12 -150 57 -150 134 0 62 40 123 105
158 26 15 104 15 146 0z m-643 -429 c29 -33 30 -37 17 -57 -22 -31 -78 -62
-113 -62 -18 0 -43 10 -61 26 -25 21 -31 34 -31 64 0 53 26 70 100 67 51 -2
60 -6 88 -38z m1476 2 c46 -48 49 -162 6 -176 -13 -4 -43 5 -83 25 -72 36 -97
55 -120 91 -21 32 -14 40 63 67 79 28 102 27 134 -7z m-1273 -240 c25 -30 73
-50 151 -62 40 -6 78 -12 83 -13 6 -1 15 -5 21 -8 12 -8 34 -6 51 5 6 4 18 1
26 -7 8 -8 18 -12 22 -8 4 4 64 7 133 8 109 1 140 5 217 29 50 15 106 38 125
51 32 21 44 23 140 20 110 -3 147 -14 184 -55 24 -26 25 -75 2 -100 -44 -49
-153 -90 -291 -109 -27 -4 -56 -12 -64 -17 -8 -4 -31 -9 -50 -10 -20 -1 -83
-7 -141 -13 -58 -7 -134 -9 -170 -7 -126 11 -205 22 -225 32 -11 6 -38 13 -60
16 -48 6 -277 101 -320 133 -17 12 -44 40 -59 63 -23 33 -26 44 -17 55 18 21
45 25 141 20 66 -4 88 -9 101 -23z"/>
<path d="M4293 5566 c-17 -6 -35 -14 -39 -18 -3 -4 -16 -2 -27 4 -16 8 -23 7
-34 -7 -12 -17 -14 -17 -31 -2 -21 19 -39 22 -44 6 -6 -18 -77 -29 -93 -13
-23 24 -33 16 -41 -31 -3 -25 -10 -48 -15 -51 -5 -3 -9 -20 -9 -39 0 -48 -27
-170 -46 -208 -9 -18 -43 -76 -76 -130 -38 -62 -57 -104 -54 -115 5 -15 72
-54 184 -105 12 -6 22 -14 22 -18 0 -5 19 -27 41 -49 38 -37 41 -43 30 -66
-14 -31 -7 -44 24 -44 17 0 26 7 29 23 12 58 15 74 21 97 5 22 0 28 -40 48
-24 12 -52 22 -60 22 -53 0 -75 102 -33 155 l22 28 185 -6 c215 -7 400 -25
419 -40 10 -8 12 -23 8 -50 -11 -68 -31 -94 -86 -112 -49 -16 -50 -17 -70 -82
-11 -36 -20 -71 -20 -79 0 -8 -9 -31 -20 -51 -35 -66 -24 -81 25 -34 69 65
121 132 146 189 8 20 27 38 49 48 53 23 133 66 149 78 30 24 29 53 -9 247 -21
107 -42 237 -46 291 -3 53 -10 102 -14 108 -5 9 -34 12 -88 12 -44 -1 -84 -2
-89 -3 -4 -1 -16 1 -25 5 -10 5 -26 5 -35 0 -10 -4 -21 -7 -25 -6 -4 1 -25 -5
-47 -13 -33 -11 -42 -11 -51 0 -15 19 -51 23 -87 11z m-3 -34 c0 -13 -12 -22
-22 -16 -10 6 -1 24 13 24 5 0 9 -4 9 -8z"/>
<path d="M0 5083 c1 -487 1 -488 20 -464 11 13 21 31 21 40 1 9 2 21 3 26 2
14 56 67 83 81 12 7 41 15 64 19 49 8 97 40 110 72 4 12 18 23 31 25 13 2 22
9 20 16 -1 7 4 15 12 18 8 3 12 12 10 19 -3 7 -1 15 4 19 14 9 7 119 -11 153
-10 18 -17 39 -17 47 0 9 -9 21 -20 28 -11 7 -20 21 -20 31 0 26 -16 53 -51
86 -16 16 -29 31 -29 34 0 12 -60 70 -66 64 -4 -3 -24 11 -45 33 -22 22 -42
40 -46 40 -10 0 -53 66 -53 79 0 6 -4 13 -10 16 -7 4 -10 -159 -10 -482z"/>
<path d="M1245 5103 c-78 -6 -82 -9 -49 -44 43 -45 140 -87 263 -115 107 -24
336 -83 476 -122 273 -77 774 -154 839 -129 48 18 -26 60 -210 117 -71 23
-163 52 -204 65 -153 49 -396 113 -566 149 -140 29 -473 87 -488 84 -6 -1 -33
-3 -61 -5z"/>
<path d="M8680 4975 c-14 -8 -33 -12 -44 -8 -12 3 -16 1 -12 -6 4 -6 25 -11
47 -11 32 0 39 3 39 20 0 23 2 23 -30 5z"/>
<path d="M8640 4896 c-20 -7 -40 -24 -48 -39 -8 -17 -24 -28 -45 -32 -21 -4
-41 -19 -57 -40 -23 -31 -39 -39 -77 -38 -7 1 -13 -9 -14 -21 0 -12 -3 -15 -6
-8 -5 14 -19 -4 -42 -55 -6 -12 -20 -27 -31 -33 -13 -7 -19 -18 -16 -26 3 -8
-1 -14 -9 -14 -9 0 -15 -10 -16 -27 0 -16 -3 -22 -6 -15 -7 17 -23 15 -23 -3
0 -8 -5 -15 -11 -15 -6 0 -9 -9 -6 -19 2 -11 -3 -28 -12 -38 -19 -20 -25 -63
-10 -63 6 0 8 -4 4 -10 -3 -5 -12 -7 -20 -3 -17 6 -20 -12 -4 -22 6 -5 3 -13
-10 -22 -21 -14 -29 -53 -11 -53 6 0 10 -7 10 -15 0 -8 -4 -15 -9 -15 -4 0 -6
-11 -3 -25 3 -20 9 -24 25 -19 17 5 19 3 14 -16 -3 -12 -3 -19 0 -16 3 3 12
-2 19 -12 11 -15 10 -18 -9 -23 -20 -6 -20 -8 11 -20 20 -8 32 -20 32 -32 0
-10 -4 -15 -10 -12 -5 3 -10 1 -10 -4 0 -6 7 -11 15 -11 8 0 15 -9 15 -21 0
-11 4 -18 9 -15 5 3 12 -1 15 -10 3 -9 13 -14 20 -11 8 3 20 -1 26 -8 7 -8 16
-13 20 -10 4 3 13 -2 20 -10 6 -7 17 -12 25 -9 7 3 16 0 20 -5 3 -6 11 -9 16
-6 5 4 19 -1 31 -11 14 -9 16 -14 6 -11 -9 3 -19 3 -22 -1 -4 -3 -48 -5 -99
-5 -51 1 -100 -2 -108 -8 -10 -6 -6 -9 16 -10 17 -1 36 -2 43 -2 6 1 12 -3 12
-8 0 -5 7 -9 15 -9 26 0 17 -35 -9 -36 -14 -1 -39 -9 -56 -18 -18 -9 -37 -13
-42 -10 -5 3 -15 -2 -22 -11 -10 -14 -16 -15 -34 -6 -18 10 -22 9 -22 -4 0
-10 -10 -15 -34 -15 -19 0 -37 -4 -40 -9 -3 -4 7 -7 22 -5 15 2 19 1 9 -2 -9
-3 -15 -10 -11 -15 3 -5 2 -18 -1 -29 -5 -15 -12 -19 -30 -14 -12 3 -26 1 -29
-5 -4 -6 -2 -11 5 -11 7 0 2 -12 -12 -26 -13 -14 -31 -23 -40 -21 -35 9 -52
-21 -36 -63 5 -15 13 -48 24 -105 3 -16 11 -33 17 -37 7 -5 7 -8 -3 -8 -10 0
-11 -3 -3 -13 6 -7 9 -24 6 -38 -4 -16 -3 -20 3 -11 7 9 13 0 23 -30 8 -24 17
-48 22 -54 6 -8 -2 -13 -24 -17 -18 -2 -36 0 -39 6 -5 6 -12 5 -22 -4 -12 -12
-12 -15 0 -24 22 -17 5 -44 -33 -51 -31 -6 -34 -9 -34 -40 0 -24 -5 -34 -16
-34 -8 0 -12 5 -9 10 3 6 1 10 -4 10 -6 0 -11 -9 -11 -20 0 -15 -7 -20 -25
-20 -18 0 -25 -5 -25 -20 0 -11 -8 -23 -17 -27 -10 -3 -25 -12 -35 -20 -11
-10 -18 -11 -23 -3 -3 5 -11 7 -17 4 -6 -4 -14 -1 -18 5 -7 13 -97 4 -170 -17
-126 -36 -156 -47 -163 -59 -4 -7 -17 -13 -27 -13 -11 0 -20 -7 -20 -15 0 -9
-9 -15 -25 -15 -14 0 -25 -4 -25 -10 0 -5 7 -10 15 -10 8 0 15 -5 15 -11 0 -6
-7 -8 -17 -5 -10 4 -15 4 -11 1 3 -4 -3 -16 -14 -27 -12 -12 -18 -28 -15 -39
3 -12 0 -19 -9 -19 -8 0 -18 -8 -21 -17 -4 -10 -9 -20 -12 -23 -16 -13 -30
-50 -20 -50 6 0 9 -10 7 -21 -2 -16 -11 -23 -34 -25 -47 -5 -84 -22 -84 -38 0
-14 -49 -52 -62 -48 -14 4 -98 -87 -98 -106 0 -11 -7 -25 -15 -32 -12 -10 -14
-26 -10 -69 3 -31 7 -99 9 -151 4 -98 7 -109 73 -244 18 -38 33 -76 33 -85 1
-9 11 -41 25 -71 16 -38 20 -59 13 -67 -5 -7 -7 -17 -3 -23 10 -16 -31 -12
-45 5 -7 8 -18 15 -24 15 -10 0 -86 78 -106 109 -3 5 -25 19 -50 31 -25 12
-48 28 -52 34 -6 8 -11 7 -17 -3 -6 -9 -11 -10 -15 -2 -4 6 -16 11 -26 11 -11
0 -24 9 -30 19 -6 13 -17 17 -30 14 -11 -3 -20 0 -20 6 0 6 -9 11 -20 11 -10
0 -23 7 -28 16 -7 12 -32 16 -122 19 -100 4 -116 2 -138 -15 -13 -11 -33 -20
-43 -20 -27 0 -34 -20 -7 -21 24 -1 -75 -30 -103 -31 -11 0 -14 -9 -13 -41 5
-81 19 -115 100 -254 10 -17 16 -35 12 -39 -9 -9 -59 33 -89 74 -13 19 -31 41
-40 50 -13 14 -61 81 -138 196 -22 32 -74 86 -83 86 -16 0 -132 -86 -195 -145
-36 -33 -77 -66 -91 -74 -14 -7 -40 -27 -59 -44 -40 -37 -140 -107 -151 -107
-4 0 -35 -17 -68 -38 -32 -22 -72 -42 -89 -46 -16 -4 -32 -11 -35 -14 -14 -19
-183 -92 -281 -122 -37 -11 -72 -27 -79 -35 -7 -8 -21 -15 -31 -15 -11 0 -27
-4 -37 -9 -30 -15 -66 -29 -107 -42 -22 -6 -44 -15 -50 -19 -5 -5 -50 -16
-100 -25 -49 -9 -99 -18 -110 -20 -62 -12 -178 -22 -230 -19 -144 8 -316 39
-382 70 -17 7 -36 14 -43 14 -6 0 -31 9 -56 20 -24 11 -54 25 -66 30 -13 6
-30 14 -38 19 -8 5 -40 22 -70 37 -105 52 -135 69 -163 89 -40 29 -131 99
-137 105 -13 14 -66 44 -73 42 -5 -1 -24 11 -42 27 -19 16 -43 32 -55 36 -12
4 -30 14 -39 23 -10 10 -41 37 -70 62 -48 41 -73 64 -131 126 -11 12 -20 26
-20 33 0 6 -5 11 -11 11 -20 0 -68 58 -95 114 -28 59 -35 64 -53 42 -8 -9 -48
-16 -121 -21 -61 -3 -110 -11 -110 -16 0 -25 -123 -69 -136 -48 -3 5 -18 0
-33 -11 -16 -10 -31 -17 -34 -14 -3 3 -12 -3 -19 -15 -7 -12 -18 -21 -24 -21
-7 0 -14 -7 -18 -15 -3 -8 -12 -12 -21 -9 -8 4 -22 1 -30 -6 -7 -6 -24 -10
-37 -9 -29 4 -82 -24 -103 -53 -12 -16 -19 -19 -22 -10 -7 17 -40 15 -47 -3
-3 -8 -15 -15 -27 -15 -21 0 -81 -29 -87 -41 -12 -26 -68 -79 -83 -79 -11 0
-19 -5 -19 -11 0 -5 5 -7 10 -4 5 3 10 4 10 0 0 -3 -11 -10 -25 -15 -14 -5
-25 -16 -25 -25 0 -9 -9 -15 -23 -15 -26 0 -47 -20 -65 -62 -6 -16 -16 -28
-21 -28 -5 0 -16 -16 -25 -35 -11 -22 -24 -35 -36 -35 -11 0 -20 2 -20 4 0 10
46 117 73 171 11 22 24 48 29 58 20 42 49 96 70 127 9 14 19 45 23 70 4 25 11
50 16 56 5 6 10 30 11 53 1 22 5 41 9 41 10 0 23 49 24 90 0 19 6 67 13 105 7
39 14 81 16 94 4 25 -12 71 -24 71 -3 0 -12 17 -19 37 -13 36 -151 183 -171
183 -5 0 -17 14 -26 31 -19 37 -66 85 -91 93 -10 3 -26 19 -35 36 -10 17 -25
30 -36 30 -11 0 -22 6 -25 14 -8 19 -81 35 -122 26 -19 -4 -42 -15 -51 -25
-12 -12 -26 -15 -47 -11 -16 3 -40 6 -53 6 -17 0 -22 5 -19 20 2 11 0 20 -6
20 -5 0 -9 -4 -9 -9 0 -12 -40 -18 -70 -11 -14 3 -45 2 -70 -3 -58 -13 -140
-14 -133 -3 7 10 -80 0 -117 -14 -3 -1 -12 -2 -22 -1 -9 1 -19 -3 -23 -9 -12
-20 -52 -11 -59 13 -6 24 16 48 67 70 26 11 27 13 12 35 -9 12 -20 20 -25 17
-5 -3 -12 0 -15 6 -5 7 5 10 29 8 23 -2 40 1 45 10 6 8 14 10 22 5 12 -6 12
-5 1 8 -11 13 -8 16 19 22 16 3 28 10 25 14 -3 5 7 15 22 23 37 18 64 47 52
54 -6 4 -5 14 3 26 10 17 9 23 -8 35 -11 9 -19 20 -17 25 1 5 -5 12 -13 15 -8
4 -15 10 -15 16 0 5 4 7 8 4 4 -2 14 -1 22 5 10 6 11 9 3 9 -15 0 -17 36 -3
45 22 13 -3 25 -40 19 -33 -5 -38 -4 -37 12 1 11 -4 19 -13 19 -8 0 -14 -7
-12 -17 2 -12 -3 -15 -18 -11 -11 3 -17 9 -14 14 3 5 -5 5 -19 0 -13 -5 -30
-5 -37 -1 -8 5 -17 7 -20 5 -3 -2 -53 -6 -110 -9 -57 -3 -108 -10 -113 -15
-10 -10 -106 16 -129 36 -9 8 -19 10 -22 5 -6 -10 -36 -10 -52 1 -6 3 -31 1
-55 -6 l-44 -13 -3 -404 -2 -403 32 -28 c18 -16 38 -28 43 -29 6 0 17 -8 26
-17 8 -10 39 -38 69 -63 74 -62 138 -127 182 -186 21 -27 41 -54 46 -60 5 -5
22 -29 37 -52 15 -23 32 -42 36 -42 5 0 9 -5 9 -11 0 -6 9 -24 21 -40 11 -16
22 -36 23 -43 1 -7 9 -21 19 -30 9 -10 17 -24 17 -32 0 -8 5 -14 10 -14 6 0
10 -6 10 -12 0 -7 12 -38 26 -68 15 -30 30 -64 34 -75 4 -11 13 -33 20 -50 7
-16 16 -46 21 -65 4 -19 15 -60 24 -90 31 -106 21 -310 -23 -445 -26 -84 -173
-345 -193 -345 -5 0 -9 -6 -9 -12 0 -7 -25 -40 -55 -73 -88 -96 -185 -195
-191 -195 -3 0 -40 -30 -82 -68 -42 -37 -94 -80 -115 -96 l-37 -28 0 -159 0
-159 639 0 c352 0 641 4 643 8 2 4 30 28 63 54 33 25 82 67 109 93 50 49 186
144 258 181 22 12 57 21 77 20 22 -1 43 6 54 17 9 9 56 97 104 195 76 154 125
244 143 262 3 3 20 23 38 45 39 46 286 298 317 323 11 10 38 40 60 67 22 28
43 52 47 55 4 3 12 18 17 33 6 16 15 25 21 22 29 -18 -4 -199 -65 -354 -19
-50 -35 -94 -35 -99 0 -17 -31 -72 -41 -72 -5 0 -9 -5 -9 -10 0 -6 -8 -22 -17
-37 -9 -14 -24 -48 -34 -75 -16 -47 -15 -53 2 -108 10 -32 27 -75 38 -96 12
-21 21 -44 21 -51 0 -7 5 -13 11 -13 6 0 9 -7 5 -15 -4 -10 1 -15 14 -15 30 0
90 32 90 48 0 8 6 12 14 9 8 -3 17 1 20 9 3 9 10 13 14 10 5 -3 42 -8 82 -11
40 -3 78 -9 84 -14 6 -4 35 -11 65 -14 65 -8 190 -35 213 -47 9 -5 72 -16 140
-25 67 -8 175 -24 238 -35 159 -27 461 -50 670 -49 96 0 191 -1 210 -1 19 -1
73 4 120 9 47 6 121 13 165 15 44 3 91 9 105 14 14 5 54 13 90 16 36 4 79 11
95 16 17 5 45 12 63 15 70 12 169 34 197 45 17 6 44 13 60 15 17 3 71 16 120
29 50 14 110 30 135 37 25 6 52 15 60 19 9 4 30 11 48 14 17 4 34 12 37 17 4
5 16 9 28 9 13 0 34 8 47 17 43 30 87 50 105 47 10 -1 29 2 43 7 18 7 31 5 49
-7 26 -16 73 -12 73 7 0 16 42 27 72 18 32 -9 46 4 51 47 2 17 6 35 10 41 7
11 54 6 63 -8 9 -16 24 -10 24 10 0 18 -16 62 -46 128 -8 17 -14 36 -14 41 0
6 -3 12 -7 14 -17 7 -43 68 -43 101 0 46 24 56 59 24 21 -19 32 -23 53 -17 22
7 32 3 53 -17 14 -14 25 -31 25 -38 0 -7 14 -15 30 -18 17 -4 30 -12 30 -19 1
-15 56 -79 73 -83 40 -10 56 -18 51 -26 -3 -5 0 -9 5 -9 6 0 11 -5 11 -11 0
-5 11 -27 25 -47 14 -20 25 -45 25 -54 0 -10 6 -18 14 -18 9 0 19 -19 26 -50
7 -27 19 -60 29 -72 16 -23 21 -94 7 -117 -4 -6 -4 -17 1 -23 4 -7 9 -29 9
-48 6 -135 5 -195 -5 -270 -6 -46 -11 -95 -11 -107 l0 -23 380 0 c213 0 380 4
380 9 0 5 -32 37 -71 72 -294 265 -404 377 -458 466 -35 60 -42 78 -35 100 4
16 6 32 5 37 -4 17 21 66 34 66 7 0 19 7 26 16 20 25 86 14 229 -38 312 -114
427 -175 755 -398 97 -66 241 -188 346 -292 l38 -38 251 0 250 0 0 696 0 696
-37 46 c-21 25 -58 67 -83 93 -25 26 -56 60 -69 75 -29 35 -91 148 -91 167 0
7 -9 32 -21 56 -46 97 -5 289 123 570 28 62 151 255 169 266 5 4 9 448 9 1126
0 1059 -1 1119 -17 1118 -10 0 -34 -6 -53 -13z m-100 -105 c0 -5 -7 -12 -16
-15 -24 -9 -28 -7 -14 9 14 17 30 20 30 6z m-940 -1741 c0 -5 -4 -10 -9 -10
-6 0 -13 5 -16 10 -3 6 1 10 9 10 9 0 16 -4 16 -10z"/>
<path d="M6985 4859 c-60 -10 -155 -26 -210 -35 -55 -9 -174 -34 -265 -56 -91
-21 -250 -57 -355 -79 -335 -70 -329 -67 -274 -142 19 -25 39 -46 46 -47 6 0
24 10 40 23 15 13 36 26 45 30 23 8 164 31 418 67 118 17 222 33 230 35 8 3
123 23 255 45 236 40 299 54 322 72 22 18 26 68 7 89 -22 25 -106 24 -259 -2z"/>
<path d="M1840 4719 c1 -29 77 -66 187 -90 44 -10 92 -14 255 -22 31 -1 60 -6
64 -9 3 -4 13 -4 21 -1 8 3 19 0 23 -7 11 -17 190 -28 190 -12 0 6 16 16 36
22 59 20 25 32 -88 33 -56 0 -119 6 -138 12 -20 7 -69 16 -110 20 -41 4 -80
11 -85 16 -6 4 -17 4 -24 0 -7 -5 -40 -2 -74 6 -34 8 -93 18 -132 23 -38 5
-82 12 -97 16 -20 5 -28 3 -28 -7z"/>
<path d="M0 4432 c0 -163 0 -163 28 -198 71 -90 173 1 197 177 8 59 -5 90 -51
126 -31 23 -48 28 -97 29 -39 0 -62 6 -68 15 -5 9 -9 -49 -9 -149z m156 77
c33 -36 14 -159 -33 -211 -12 -13 -20 -15 -35 -7 -27 15 -58 86 -58 136 0 81
79 134 126 82z"/>
<path d="M1197 4543 c-8 -13 45 -87 75 -107 69 -44 211 -83 373 -101 72 -8
189 -21 260 -29 165 -18 327 -33 532 -47 190 -13 193 -12 193 62 0 37 -4 49
-17 53 -20 6 -93 17 -278 41 -66 9 -172 24 -235 35 -63 10 -171 24 -240 30
-69 6 -192 22 -275 35 -175 28 -379 43 -388 28z"/>
<path d="M4190 4527 c0 -8 13 -44 30 -79 41 -86 41 -157 1 -233 -16 -30 -25
-57 -20 -60 5 -4 9 -21 9 -38 0 -37 8 -51 33 -60 14 -5 17 -18 17 -69 0 -89
-17 -186 -42 -238 -26 -54 -132 -161 -186 -189 -56 -29 -139 -60 -192 -72 -60
-14 -254 -39 -304 -39 l-41 -1 35 -15 c44 -19 50 -29 49 -89 0 -135 -37 -191
-116 -182 -57 6 -118 47 -143 97 -24 47 -27 132 -5 174 9 16 14 30 13 31 -2 2
-42 15 -89 29 -47 14 -109 37 -137 51 -68 33 -74 32 -57 -9 35 -84 22 -257
-23 -312 -29 -34 -66 -38 -88 -9 -10 13 -27 26 -39 29 -11 3 -34 19 -50 36
-29 31 -30 34 -30 133 0 91 4 109 29 164 15 34 35 64 43 67 12 5 9 11 -13 28
-44 34 -90 86 -138 158 -70 107 -73 112 -86 188 -6 39 -16 75 -21 78 -9 5 -35
2 -244 -32 -128 -21 -432 -79 -625 -120 -216 -45 -310 -73 -310 -91 0 -8 14
-34 31 -59 30 -45 93 -176 128 -267 37 -96 296 -369 524 -552 342 -274 599
-383 1242 -524 285 -63 323 -77 393 -143 30 -29 57 -47 59 -41 2 6 -14 45 -36
87 -39 76 -64 147 -74 219 -5 34 -4 36 13 27 10 -5 30 -34 43 -62 14 -29 43
-78 65 -108 23 -30 63 -84 89 -120 26 -36 60 -78 75 -95 16 -16 28 -33 28 -37
0 -15 162 -146 185 -150 14 -3 25 -3 25 -1 0 2 -24 29 -54 60 -57 57 -86 106
-86 142 0 30 45 67 106 86 30 9 57 21 60 27 3 5 17 7 31 3 36 -9 133 -83 133
-101 0 -19 -49 -90 -84 -123 -14 -14 -26 -30 -26 -37 0 -7 -6 -15 -12 -17 -9
-4 -8 -6 2 -6 9 -1 33 11 55 26 46 31 295 278 347 343 34 42 99 165 114 213 6
20 23 63 51 127 9 20 10 11 6 -45 -7 -92 -27 -183 -55 -242 -27 -60 -114 -200
-141 -230 -36 -40 -9 -37 30 2 95 95 129 107 528 175 328 56 464 98 675 206
285 145 478 311 760 654 30 36 56 67 59 70 4 3 30 37 60 77 30 40 60 74 68 77
7 3 13 12 13 21 0 8 3 15 8 15 7 0 32 48 32 63 0 5 12 23 26 40 21 25 23 32
12 43 -17 16 -193 73 -383 123 -82 22 -190 51 -240 64 -49 13 -135 34 -190 46
-55 13 -138 35 -184 51 l-83 28 -17 -30 c-49 -89 -119 -184 -173 -235 -34 -32
-89 -84 -122 -116 -72 -68 -203 -136 -322 -166 -43 -11 -103 -29 -133 -39 -46
-16 -51 -20 -37 -31 12 -10 16 -33 16 -98 0 -135 -46 -196 -148 -196 -52 0
-67 17 -99 113 -32 92 -29 150 6 150 15 1 71 28 61 31 -3 0 -29 3 -59 5 -74 5
-134 24 -270 86 -107 49 -201 139 -254 247 -28 58 -31 74 -35 180 -4 101 -2
120 13 134 11 12 16 28 13 47 -3 16 0 31 6 33 7 2 6 10 -3 21 -12 14 -12 19
-1 26 9 5 10 16 5 36 -5 16 -8 65 -7 109 2 64 6 85 22 105 25 30 64 110 57
116 -3 3 -21 -4 -41 -16 -47 -26 -90 -26 -132 1 -28 17 -34 18 -34 6z m1383
-1047 c11 -40 19 -104 20 -167 2 -95 0 -103 -22 -127 -57 -61 -156 -53 -195
14 -17 28 -21 52 -21 120 0 120 6 133 77 186 47 34 69 44 92 42 29 -3 32 -8
49 -68z m-3136 48 c16 -20 25 -115 13 -123 -18 -11 -236 -16 -263 -6 -60 23
-60 92 0 112 80 26 235 36 250 17z m1615 -85 c18 -16 21 -16 49 1 18 11 37 15
47 10 16 -7 112 -14 204 -14 20 0 42 -7 48 -15 10 -12 27 -14 74 -10 114 11
157 -34 170 -175 10 -112 13 -110 -185 -122 -118 -7 -223 -6 -374 3 -205 13
-211 14 -252 42 -54 36 -63 53 -63 117 0 103 50 160 150 171 95 10 113 9 132
-8z m2179 -133 c19 -11 41 -64 33 -84 -6 -16 -164 -29 -227 -20 -55 9 -67 20
-67 60 0 56 27 67 144 59 55 -3 107 -10 117 -15z m-1932 -555 c18 -15 28 -32
24 -40 -6 -18 -75 -40 -97 -32 -21 8 -21 61 0 81 22 22 38 20 73 -9z m-222
-210 c6 -15 7 -27 2 -31 -14 -8 -42 24 -35 41 8 22 19 18 33 -10z m-112 -54
c3 -5 1 -12 -5 -16 -7 -4 -7 -13 1 -26 11 -22 4 -39 -10 -23 -8 8 -15 46 -12
67 1 10 19 9 26 -2z m25 -87 c0 -8 -5 -12 -10 -9 -6 4 -8 11 -5 16 9 14 15 11
15 -7z"/>
<path d="M5525 4450 c-3 -5 1 -10 9 -10 9 0 16 5 16 10 0 6 -4 10 -9 10 -6 0
-13 -4 -16 -10z"/>
<path d="M3000 4285 c0 -8 7 -15 15 -15 8 0 15 7 15 15 0 8 -7 15 -15 15 -8 0
-15 -7 -15 -15z"/>
<path d="M5923 4259 c-7 -7 -13 -37 -13 -66 0 -86 6 -88 290 -90 129 0 289 -6
355 -12 66 -7 217 -14 336 -18 l217 -6 26 26 c21 22 37 27 88 29 60 3 63 10 8
22 -14 3 -46 21 -70 39 -44 34 -48 35 -165 40 -66 4 -201 11 -300 16 -326 19
-358 20 -560 27 -158 5 -203 3 -212 -7z"/>
<path d="M4469 4159 c-12 -8 -12 -10 1 -19 12 -7 12 -12 2 -22 -19 -19 -14
-45 11 -53 49 -16 57 -15 57 4 0 33 -11 51 -31 51 -10 0 -19 5 -19 11 0 6 7 9
15 5 21 -8 19 7 -3 21 -12 7 -24 8 -33 2z"/>
<path d="M4376 4124 c-7 -18 17 -58 28 -46 4 4 13 0 19 -8 7 -8 20 -21 29 -28
14 -12 16 -11 11 8 -3 11 -9 23 -14 26 -5 3 -9 14 -9 24 0 18 -27 40 -48 40
-6 0 -13 -7 -16 -16z"/>
<path d="M4154 4111 c4 -5 0 -12 -6 -14 -8 -3 -6 -6 5 -6 9 -1 17 6 17 14 0 8
-5 15 -11 15 -5 0 -8 -4 -5 -9z"/>
<path d="M50 3921 c0 -5 -11 -12 -25 -15 l-25 -6 0 -230 0 -230 22 12 c13 7
44 30 69 51 26 20 52 37 58 37 6 0 11 6 11 13 0 6 23 34 50 60 41 39 50 55 50
82 0 19 4 36 8 39 5 3 15 30 22 60 l13 56 -29 27 c-24 22 -39 27 -89 29 -34 0
-61 6 -63 13 -4 13 -72 15 -72 2z"/>
<path d="M3428 3453 c7 -3 16 -2 19 1 4 3 -2 6 -13 5 -11 0 -14 -3 -6 -6z"/>
<path d="M4272 2044 c-7 -8 -8 -14 -3 -14 10 0 25 19 20 25 -2 1 -10 -3 -17
-11z"/>
</g>
</svg>
